# xmcd
#
# Track frame offsets:
#	150
#	19350
#	40085
#	60702
#	75035
#	88597
#	108204
#	127632
#	141321
#	156102
#	174885
#	188668
#	208271
#	226841
#	246659
#	261092
#
# Disc length: 3614 seconds
#
# Revision: 3
# Processed by: cddbd v1.5.2PL0 Copyright (c) Steve Scherf et al.
# Submitted via: audiograbber 1.83.01
#
DISCID=c80e1c10
DTITLE=Lilian Jackson Braun-George Guidall - The Cat Who Played Brahms Disc 4
DYEAR=1987
DGENRE=Audiobook
TTITLE0=The Cat Who Played Brahms Disc 4 - Track 1
TTITLE1=The Cat Who Played Brahms Disc 4 - Track 2
TTITLE2=The Cat Who Played Brahms Disc 4 - Track 3
TTITLE3=The Cat Who Played Brahms Disc 4 - Track 4
TTITLE4=The Cat Who Played Brahms Disc 4 - Track 5
TTITLE5=The Cat Who Played Brahms Disc 4 - Track 6
TTITLE6=The Cat Who Played Brahms Disc 4 - Track 7
TTITLE7=The Cat Who Played Brahms Disc 4 - Track 8
TTITLE8=The Cat Who Played Brahms Disc 4 - Track 9
TTITLE9=The Cat Who Played Brahms Disc 4 - Track 10
TTITLE10=The Cat Who Played Brahms Disc 4 - Track 11
TTITLE11=The Cat Who Played Brahms Disc 4 - Track 12
TTITLE12=The Cat Who Played Brahms Disc 4 - Track 13
TTITLE13=The Cat Who Played Brahms Disc 4 - Track 14
TTITLE14=The Cat Who Played Brahms Disc 4 - Track 15
TTITLE15=The Cat Who Played Brahms Disc 4 - Track 16
EXTD=
EXTT0=
EXTT1=
EXTT2=
EXTT3=
EXTT4=
EXTT5=
EXTT6=
EXTT7=
EXTT8=
EXTT9=
EXTT10=
EXTT11=
EXTT12=
EXTT13=
EXTT14=
EXTT15=
PLAYORDER=
